<?xml version="1.0" encoding="UTF-8" standalone="no"?>
<!-- Created with Inkscape (http://www.inkscape.org/) -->

<svg
   xmlns:dc="http://purl.org/dc/elements/1.1/"
   xmlns:cc="http://creativecommons.org/ns#"
   xmlns:rdf="http://www.w3.org/1999/02/22-rdf-syntax-ns#"
   xmlns:svg="http://www.w3.org/2000/svg"
   xmlns="http://www.w3.org/2000/svg"
   xmlns:sodipodi="http://sodipodi.sourceforge.net/DTD/sodipodi-0.dtd"
   xmlns:inkscape="http://www.inkscape.org/namespaces/inkscape"
   version="1.1"
   id="svg2"
   width="705.33331"
   height="644"
   viewBox="0 0 705.33331 644"
   sodipodi:docname="Logo-Cuadrado_blanco_fondo_rojo.svg"
   inkscape:version="0.92.5 (2060ec1f9f, 2020-04-08)">
  <metadata
     id="metadata8">
    <rdf:RDF>
      <cc:Work
         rdf:about="">
        <dc:format>image/svg+xml</dc:format>
        <dc:type
           rdf:resource="http://purl.org/dc/dcmitype/StillImage" />
        <dc:title></dc:title>
      </cc:Work>
    </rdf:RDF>
  </metadata>
  <defs
     id="defs6" />
  <sodipodi:namedview
     pagecolor="#ffffff"
     bordercolor="#666666"
     borderopacity="1"
     objecttolerance="10"
     gridtolerance="10"
     guidetolerance="10"
     inkscape:pageopacity="0"
     inkscape:pageshadow="2"
     inkscape:window-width="1920"
     inkscape:window-height="1016"
     id="namedview4"
     showgrid="false"
     inkscape:zoom="1.0365043"
     inkscape:cx="247.8215"
     inkscape:cy="476.68642"
     inkscape:window-x="1366"
     inkscape:window-y="27"
     inkscape:window-maximized="1"
     inkscape:current-layer="svg2" />
  <path
     style="fill:#f52700;fill-opacity:1;stroke-width:1.33333325"
     d="M 1.2994117,321.99999 V 7.8135596e-7 H 353.966 706.6327 V 321.99999 v 322 H 353.966 1.2994117 Z m 246.0124183,180 c 4.6011,-16.13333 11.38837,-39.23333 15.08287,-51.33333 3.6945,-12.1 10.387,-34.9 14.8722,-50.66667 4.4853,-15.76667 9.3719,-32.56667 10.8592,-37.33333 5.6978,-18.2613 14.5659,-48.37182 21.7944,-74 4.1368,-14.66667 9.5894,-33.07434 12.1168,-40.90592 2.5275,-7.83159 4.5954,-14.88159 4.5954,-15.66667 0,-0.971 -9.3629,-1.42741 -29.2819,-1.42741 h -29.282 l -1.3619,5 c -4.0757,14.96322 -33.69187,115.95934 -48.97117,167 -4.0613,13.56666 -13.2832,45.06666 -20.4931,70 -7.21,24.93333 -13.9784,48.1516 -15.0411,51.59616 -1.0626,3.44454 -1.5889,6.60593 -1.1695,7.0253 0.4193,0.41938 13.6216,0.60111 29.3382,0.40386 l 28.5758,-0.35866 z M 416.872,517.33332 c 2.4305,-7.7 9.8527,-32.9 16.4938,-56 6.6412,-23.1 13.8039,-47.4 15.9173,-54 2.1133,-6.6 10.1796,-33.9 17.9252,-60.66666 7.7455,-26.76667 15.9168,-54.66667 18.1585,-62 13.6417,-44.62755 22.5971,-78.31559 22.57,-84.90275 -0.033,-7.95371 -3.2934,-16.23884 -8.1464,-20.70028 -6.7814,-6.23419 -12.5245,-7.56019 -35.1936,-8.12568 l -21.3693,-0.53305 -8.1778,25.13088 -8.1777,25.13088 3.547,0.38722 c 6.3161,0.68952 10.8927,3.19755 11.6993,6.41138 0.4667,1.8595 -1.1335,9.22476 -3.9465,18.16454 -2.6023,8.27027 -10.5112,35.13686 -17.5753,59.70352 -7.0641,24.56667 -14.8663,50.96667 -17.3383,58.66667 -2.472,7.7 -8.6667,28.7 -13.766,46.66667 -5.0994,17.96666 -15.0289,51.8906 -22.0655,75.38653 -7.0367,23.49592 -12.794,43.45763 -12.794,44.35933 0,1.25772 6.7319,1.5558 28.9102,1.28014 l 28.9101,-0.35934 z m -70.1568,-55 c 0.8352,-3.11666 3.7959,-12.86666 6.5793,-21.66666 2.7834,-8.8 9.9524,-33.1 15.9312,-54 5.9788,-20.9 12.6287,-43.4 14.7776,-50 2.1489,-6.6 10.1667,-33.6 17.8174,-60 7.6507,-26.4 17.5657,-60 22.0334,-74.66667 4.4676,-14.66667 8.4972,-28.91667 8.9546,-31.66667 l 0.8315,-5 h -30.0633 -30.0632 l -2.0492,6.33334 c -1.127,3.48333 -6.911,23.43333 -12.8533,44.33333 -5.9423,20.9 -13.1455,45.5 -16.0071,54.66667 -2.8616,9.16666 -11.2213,37.36666 -18.5771,62.66666 -7.3557,25.3 -19.0665,65.5 -26.0239,89.33334 -6.9574,23.83333 -12.6619,43.78333 -12.6768,44.33333 -0.015,0.55 13.45,1 29.9217,1 h 29.9486 z m 7.7758,-264.66666 c 4.5035,-13.01667 8.1776,-24.41667 8.1649,-25.33334 -0.018,-1.29901 -9.6782,-1.66666 -43.7921,-1.66666 h -43.769 l -15.231,24.29414 c -8.37707,13.36179 -15.43107,24.76179 -15.67547,25.33334 -0.2445,0.57154 22.63127,1.03918 50.83507,1.03918 h 51.2796 z m 141.0704,-63.66667 c 3.8652,-13.2 7.0374,-24.75 7.0494,-25.66667 0.017,-1.31489 -16.7095,-1.66666 -79.249,-1.66666 h -79.271 l -2.8764,6.33333 c -6.2921,13.85393 -18.5817,43.23531 -18.5817,44.4242 0,0.7848 31.3928,1.13268 82.9506,0.91923 l 82.9505,-0.34343 z"
     id="path817"
     inkscape:connector-curvature="0" />
</svg>
